<?xml version="1.0" encoding="UTF-8"?>
<svg width="60px" height="79px" viewBox="0 0 60 79" version="1.1" xmlns="http://www.w3.org/2000/svg" xmlns:xlink="http://www.w3.org/1999/xlink">
    <title>Group 7</title>
    <g id="Page-1" stroke="none" stroke-width="1" fill="none" fill-rule="evenodd">
        <g id="4.Spalsh4" transform="translate(-177.000000, -254.000000)">
            <g id="Group-7" transform="translate(177.000000, 254.000000)">
                <path d="M47.6883647,23.6272264 L11.9283503,23.6272264 C8.72333779,23.6272264 5.82174858,22.3281434 3.720998,20.2273929 C1.62107644,18.1274713 0.321993499,15.2258821 0.321993499,12.0208696 C0.321993499,8.81585703 1.62107644,5.91426783 3.720998,3.81434627 C5.82174858,1.71359568 8.72333779,0.414512744 11.9283503,0.414512744 L47.6883647,0.414512744 C50.8933772,0.414512744 53.7949665,1.71359568 55.894888,3.81434627 C57.9956386,5.91426783 59.2947215,8.81585703 59.2947215,12.0208696 C59.2947215,13.6233758 58.9697435,15.1496118 58.3827935,16.5382294 C56.6202853,20.7040825 52.4958835,23.6272264 47.6883647,23.6272264" id="Fill-1" fill="#3A5CFF"></path>
                <path d="M27.0583142,51.814093 L12.0844558,51.814093 C7.98243771,51.814093 4.37700587,49.6859845 2.3127324,46.4726817 C1.15126769,44.6654062 0.478098999,42.5149141 0.478098999,40.2077361 C0.478098999,37.0027236 1.77718194,34.1011344 3.87793252,32.0012128 C5.97785408,29.9004622 8.87944329,28.6013793 12.0844558,28.6013793 L27.0583142,28.6013793 C30.2633267,28.6013793 33.1649159,29.9004622 35.2648375,32.0012128 C37.3655881,34.1011344 38.664671,37.0027236 38.664671,40.2077361 C38.664671,42.9269397 37.7295302,45.4272806 36.1635011,47.4061644 C34.0370507,50.091378 30.7491356,51.814093 27.0583142,51.814093" id="Fill-3" fill="#2697FF"></path>
                <path d="M12.1973691,78.8201785 L12.1973691,78.8201785 C9.42925299,78.8201785 6.89077695,77.8361253 4.91189311,76.1987999 C2.37922025,74.1021945 0.765107622,70.9336591 0.765107622,67.387917 C0.765107622,64.3395903 1.9580753,61.5698162 3.90296909,59.5204652 C5.98631014,57.3252057 8.9318377,55.9564846 12.1973691,55.9564846 C15.3542981,55.9564846 18.211949,57.2356709 20.2803676,59.3040895 C22.3496152,61.3733371 23.6288015,64.230988 23.6288015,67.387917 C23.6288015,70.5448461 22.3496152,73.402497 20.2803676,75.4717446 C18.211949,77.5409922 15.3542981,78.8201785 12.1973691,78.8201785" id="Fill-5" fill="#03C89C"></path>
            </g>
        </g>
    </g>
</svg>