<svg xmlns="http://www.w3.org/2000/svg" width="17pt" height="28" viewBox="0 0 17 21"><clipPath id="a"><path transform="matrix(1 0 0 -1 0 21)" d="M14.875 18.375h-3.542c0 1.448-1.27 2.625-2.833 2.625-1.563 0-2.833-1.177-2.833-2.625H2.125C.952 18.375 0 17.493 0 16.406V1.97C0 .882.952 0 2.125 0h12.75C16.048 0 17 .882 17 1.969v14.437c0 1.087-.952 1.969-2.125 1.969zm-1.029-8.523L7.981 4.036a.493.493 0 0 0-.697.004L3.896 7.457a.493.493 0 0 0 .004.697L5.065 9.31a.493.493 0 0 0 .697-.005l1.887-1.903 4.347 4.315a.493.493 0 0 0 .698-.004l1.156-1.165a.493.493 0 0 0-.004-.697z"/></clipPath><g clip-path="url(#a)"><clipPath id="b"><path transform="matrix(1 0 0 -1 0 21)" d="M-323-489H91v896h-414z"/></clipPath><g clip-path="url(#b)"><path d="M-1-1h19v23H-1z" fill="#33d700" fill-opacity=".7"/></g></g></svg>